<svg xmlns="http://www.w3.org/2000/svg" width="70" height="70" viewBox="0 0 70 70" style="width: 100%; height: 100%;"><desc>Made with illustrio</desc>
  
<g class="base"><g fill="none" fill-rule="evenodd" stroke="none" class="main-fill">
    
    <path fill="none" d="M19.989,0 C13.363,0 7.987,5.376 7.987,12.003 C7.987,13.862 8.425,15.617 9.178,17.191 L0.582,25.787 C-0.194,26.56 -0.194,27.823 0.582,28.6 L3.395,31.409 C4.172,32.187 5.431,32.187 6.208,31.409 L14.804,22.813 C16.375,23.572 18.129,24.005 19.989,24.005 C26.62,24.005 31.992,18.632 31.992,12.002 C31.992,5.376 26.62,0 19.989,0 Z M19.989,20.005 C15.57,20.005 11.988,16.422 11.988,12.003 C11.988,7.584 15.571,4.001 19.989,4.001 C24.407,4.001 27.991,7.584 27.991,12.003 C27.991,16.422 24.408,20.005 19.989,20.005 Z" transform="translate(19 19)" stroke="none" class="main-fill"></path>
  </g></g><style>
          .main-fill {fill: #c2cad4;}
          .main-stroke {stroke: #c2cad4;}
          .secondary-fill {fill: #000d96;}
          .secondary-stroke {stroke: #000d96;}

          .main-fill--darken {fill: #95a3b4;}
          .main-stroke--darken {stroke: #95a3b4;}
          .secondary-fill--darken {fill: #000649;}
          .secondary-stroke--darken {stroke: #000649;}

          .main-fill--darkener {fill: #77899f;}
          .main-stroke--darkener {stroke: #77899f;}
          .secondary-fill--darkener {fill: #000216;}
          .secondary-stroke--darkener {stroke: #000216;}
        </style></svg>