<svg xmlns="http://www.w3.org/2000/svg" width="70" height="70" viewBox="0 0 70 70" style="width: 100%; height: 100%;"><desc>Made with illustrio</desc>
  
<g class="base"><g fill="none" fill-rule="evenodd" stroke="none" class="main-fill">
    
    <path fill="none" d="M28.9799417,12.006925 C28.9799417,7.73103333 27.3837083,3.835125 24.7718333,0.853183333 L23.273075,2.35194167 C25.5049667,4.94684167 26.8610417,8.31588333 26.8610417,12.006925 C26.8610417,19.7210417 20.9691417,26.05505 13.4415167,26.7684083 L13.4415167,23.9234917 C19.4054583,23.22285 24.0359,18.1587583 24.0359,12.006925 C24.0359,5.37629167 18.6596083,0 12.028975,0 C5.39834167,0 0.0219916667,5.37629167 0.0219916667,12.006925 C0.0219916667,18.1587 4.65243333,23.22285 10.616375,23.9234917 L10.616375,26.7698667 C7.48043333,26.4718417 4.63411667,25.1934083 2.37393333,23.2511417 L0.875175,24.7499 C3.52374167,27.0722083 6.89844167,28.583625 10.6163167,28.893025 L10.6163167,31.07685 L9.20371667,31.07685 L7.79111667,33.9019917 L16.2666,33.9019917 L14.854,31.07685 L13.4414,31.07685 L13.4414,28.8873667 C22.1402417,28.1668917 28.9799417,20.8920833 28.9799417,12.006925 L28.9799417,12.006925 Z" transform="translate(20.475 18.025)" stroke="none" class="main-fill"></path>
  </g></g><style>
          .main-fill {fill: #c2cad4;}
          .main-stroke {stroke: #c2cad4;}
          .secondary-fill {fill: #000d96;}
          .secondary-stroke {stroke: #000d96;}

          .main-fill--darken {fill: #95a3b4;}
          .main-stroke--darken {stroke: #95a3b4;}
          .secondary-fill--darken {fill: #000649;}
          .secondary-stroke--darken {stroke: #000649;}

          .main-fill--darkener {fill: #77899f;}
          .main-stroke--darkener {stroke: #77899f;}
          .secondary-fill--darkener {fill: #000216;}
          .secondary-stroke--darkener {stroke: #000216;}
        </style></svg>